<svg xmlns="http://www.w3.org/2000/svg" viewBox="0 0 512 512">
  <defs>
    <linearGradient id="bg" x1="0%" x2="100%" y1="0%" y2="100%">
      <stop offset="0%" stop-color="#080d17" />
      <stop offset="58%" stop-color="#16233a" />
      <stop offset="100%" stop-color="#18b6a4" />
    </linearGradient>
  </defs>
  <rect width="512" height="512" fill="url(#bg)" />
  <circle cx="256" cy="256" r="150" fill="#ffffff" fill-opacity="0.96" />
  <path
    d="M314 166c-55 0-100 45-100 100s45 100 100 100c27 0 51-11 69-29l-35-35c-9 9-21 14-34 14-28 0-50-22-50-50s22-50 50-50c13 0 25 5 34 14l35-35c-18-18-42-29-69-29Z"
    fill="#080d17"
  />
  <rect x="160" y="154" width="50" height="204" rx="25" fill="#18b6a4" />
</svg>
